HIERARCHY
ROOT Hips
{
	OFFSET -0.001795 -0.223333 0.028219
	CHANNELS 6 Xposition Yposition Zposition Zrotation Yrotation Xrotation 
	JOINT LeftUpLeg
	{
		OFFSET 0.069520 -0.091406 -0.006815
		CHANNELS 3 Zrotation Yrotation Xrotation
		JOINT LeftLeg
		{
			OFFSET 0.034277 -0.375199 -0.004496
			CHANNELS 3 Zrotation Yrotation Xrotation
			JOINT LeftFoot
			{
				OFFSET -0.013596 -0.397961 -0.043693
				CHANNELS 3 Zrotation Yrotation Xrotation
				JOINT LeftToe
				{
					OFFSET 0.026358 -0.055791 0.119288
					CHANNELS 3 Zrotation Yrotation Xrotation
					End Site
					{
						OFFSET 0.000000 0.000000 0.000000
					}
				}
			}
		}
	}
	JOINT RightUpLeg
	{
		OFFSET -0.067670 -0.090522 -0.004320
		CHANNELS 3 Zrotation Yrotation Xrotation
		JOINT RightLeg
		{
			OFFSET -0.038290 -0.382569 -0.008850
			CHANNELS 3 Zrotation Yrotation Xrotation
			JOINT RightFoot
			{
				OFFSET 0.015774 -0.398415 -0.042312
				CHANNELS 3 Zrotation Yrotation Xrotation
				JOINT RightToe
				{
					OFFSET -0.025372 -0.048144 0.123348
					CHANNELS 3 Zrotation Yrotation Xrotation
					End Site
					{
						OFFSET 0.000000 0.000000 0.000000
					}
				}
			}
		}
	}
	JOINT Spine
	{
		OFFSET -0.002533 0.108963 -0.026696
		CHANNELS 3 Zrotation Yrotation Xrotation
		JOINT Spine1
		{
			OFFSET 0.005487 0.135180 0.001092
			CHANNELS 3 Zrotation Yrotation Xrotation
			JOINT Spine2
			{
				OFFSET 0.001457 0.052922 0.025425
				CHANNELS 3 Zrotation Yrotation Xrotation
				JOINT Neck
				{
					OFFSET -0.002778 0.213870 -0.042857
					CHANNELS 3 Zrotation Yrotation Xrotation
					JOINT Head
					{
						OFFSET 0.005152 0.064970 0.051349
						CHANNELS 3 Zrotation Yrotation Xrotation
						End Site
						{
							OFFSET 0.000000 0.000000 0.000000
						}
					}
				}
				JOINT LeftShoulder
				{
					OFFSET 0.078845 0.121749 -0.034090
					CHANNELS 3 Zrotation Yrotation Xrotation
					JOINT LeftArm
					{
						OFFSET 0.090977 0.030469 -0.008868
						CHANNELS 3 Zrotation Yrotation Xrotation
						JOINT LeftForeArm
						{
							OFFSET 0.259612 -0.012772 -0.027456
							CHANNELS 3 Zrotation Yrotation Xrotation
							JOINT LeftHand
							{
								OFFSET 0.249234 0.008986 -0.001171
								CHANNELS 3 Zrotation Yrotation Xrotation
								End Site
								{
									OFFSET 0.000000 0.000000 0.000000
								}
							}
						}
					}
				}
				JOINT RightShoulder
				{
					OFFSET -0.081759 0.118833 -0.038615
					CHANNELS 3 Zrotation Yrotation Xrotation
					JOINT RightArm
					{
						OFFSET -0.096012 0.032551 -0.009143
						CHANNELS 3 Zrotation Yrotation Xrotation
						JOINT RightForeArm
						{
							OFFSET -0.253742 -0.013329 -0.021401
							CHANNELS 3 Zrotation Yrotation Xrotation
							JOINT RightHand
							{
								OFFSET -0.255298 0.007772 -0.005559
								CHANNELS 3 Zrotation Yrotation Xrotation
								End Site
								{
									OFFSET 0.000000 0.000000 0.000000
								}
							}
						}
					}
				}
			}
		}
	}
}
MOTION
Frames: 11
Frame Time: 0.050000
0.006304 0.952713 -0.040163 -3.727285 7.079972 10.168653 5.763154 -0.429240 -3.236518 8.069435 0.537834 -13.683111 -0.813395 6.338864 18.362978 0.000000 0.000000 0.000000 -1.877041 1.108377 -13.053017 -2.306053 0.376272 2.083008 -0.094740 -3.677645 10.460289 0.000000 0.000000 0.000000 -1.942151 0.092243 -0.645069 3.949674 -1.375262 -5.662094 3.866429 -10.548808 -10.502086 -4.230538 3.075930 -8.800024 0.000000 0.000000 0.000000 14.374453 -26.644609 7.247186 14.323471 -33.392145 -3.911374 34.451547 -15.130038 -3.102900 0.000000 0.000000 0.000000 -30.616679 30.634197 6.930909 -34.980428 37.344365 -13.944499 -36.222078 7.647602 -1.644358 0.000000 0.000000 0.000000 
0.005996 0.952531 -0.041011 -3.842452 6.920014 10.305575 5.904897 -0.438603 -3.366205 8.297159 0.550980 -13.762278 -0.851693 6.347703 18.645935 0.000000 0.000000 0.000000 -1.704343 1.116226 -12.928514 -2.336768 0.348876 1.518176 0.087707 -3.456986 10.904288 0.000000 0.000000 0.000000 -1.659509 0.082109 -0.606066 4.058898 -1.400880 -5.920048 3.520271 -9.999730 -10.026005 -3.710091 2.756129 -9.558342 0.000000 0.000000 0.000000 13.770448 -26.856957 7.423950 14.521616 -33.477547 -4.027771 36.382044 -14.383322 -3.149593 0.000000 0.000000 0.000000 -30.380154 31.487656 6.872039 -34.964381 37.730604 -13.916658 -37.416178 5.853003 -1.120682 0.000000 0.000000 0.000000 
0.005743 0.952773 -0.041978 -3.699228 6.716369 10.412701 5.887674 -0.436145 -3.330732 8.286795 0.556297 -13.796339 -0.814263 6.423436 18.827361 0.000000 0.000000 0.000000 -1.888124 1.089634 -12.706880 -2.119444 0.285883 0.864048 0.188316 -3.246366 10.778473 0.000000 0.000000 0.000000 -1.751968 0.084042 -0.506117 4.015377 -1.393067 -5.815611 3.549379 -9.384719 -10.086262 -3.559794 2.671678 -10.551264 0.000000 0.000000 0.000000 12.904526 -27.422858 7.770935 14.819047 -33.754024 -4.190739 38.656317 -13.883597 -3.271961 0.000000 0.000000 0.000000 -29.750658 31.974840 6.911312 -34.737972 38.667438 -14.095572 -38.843113 4.531694 -0.712371 0.000000 0.000000 0.000000 
0.005491 0.952539 -0.043196 -3.579478 7.110091 10.541390 6.094237 -0.453903 -3.475042 8.054449 0.554840 -13.859143 -1.335067 5.743144 18.824791 0.000000 0.000000 0.000000 -1.907510 1.081042 -12.666313 -2.064379 0.264611 0.572430 -0.000866 -3.571275 10.785430 0.000000 0.000000 0.000000 -1.838075 0.084079 -0.359915 4.228553 -1.481980 -5.747776 3.164009 -9.181056 -9.902999 -2.951951 2.331962 -11.169933 0.000000 0.000000 0.000000 12.258664 -27.522000 7.930471 15.393266 -34.932010 -4.574829 40.723495 -13.293461 -3.339436 0.000000 0.000000 0.000000 -28.781673 32.342001 6.983083 -34.055143 39.375349 -13.985056 -40.125281 3.663206 -0.420046 0.000000 0.000000 0.000000 
0.005223 0.952643 -0.044573 -3.444629 7.439899 10.622860 6.092685 -0.466985 -3.702794 7.874675 0.537829 -13.731213 -1.739934 5.225367 18.837361 0.000000 0.000000 0.000000 -2.018804 1.048103 -12.360406 -1.851060 0.209454 -0.019238 -0.174035 -3.892205 10.864895 0.000000 0.000000 0.000000 -1.861684 0.084663 -0.344596 4.369223 -1.564930 -5.419019 2.924753 -8.600631 -10.154505 -2.691831 2.219409 -11.448197 0.000000 0.000000 0.000000 11.624196 -28.199033 8.268810 16.032287 -36.076708 -5.015284 42.434686 -12.628067 -3.354216 0.000000 0.000000 0.000000 -26.894171 32.977017 7.242425 -33.128387 40.618465 -13.933936 -41.116479 3.637447 -0.349586 0.000000 0.000000 0.000000 
0.004917 0.952235 -0.045864 -3.406734 7.597629 10.603743 6.239928 -0.467009 -3.536709 7.664040 0.548733 -13.928648 -2.173458 4.543256 18.597626 0.000000 0.000000 0.000000 -2.110707 1.026684 -12.173312 -1.712960 0.169822 -0.492174 -0.376397 -4.424544 11.457736 0.000000 0.000000 0.000000 -2.015049 0.088024 -0.242484 4.588180 -1.678419 -5.163722 2.762407 -8.121274 -9.952111 -2.316444 2.034898 -11.879571 0.000000 0.000000 0.000000 10.815426 -28.309384 8.453908 16.615374 -37.228969 -5.449297 43.834346 -11.540150 -3.163093 0.000000 0.000000 0.000000 -24.901271 33.396287 7.537272 -32.100203 41.763902 -13.853002 -42.662071 4.342485 -0.571293 0.000000 0.000000 0.000000 
0.004697 0.951881 -0.046822 -3.306984 7.755760 10.430726 6.300030 -0.462613 -3.378579 7.401626 0.536848 -13.876434 -2.319419 4.331798 18.523435 0.000000 0.000000 0.000000 -2.191895 0.993829 -11.814972 -1.669012 0.149931 -0.793951 -0.189579 -4.038268 11.478364 0.000000 0.000000 0.000000 -2.130901 0.089461 -0.166812 4.629056 -1.733262 -4.753674 2.782766 -7.809603 -10.058926 -2.212066 1.999396 -12.191582 0.000000 0.000000 0.000000 10.013858 -28.706236 8.731409 17.023593 -37.782717 -5.708584 45.074615 -11.124916 -3.152997 0.000000 0.000000 0.000000 -22.440779 34.167564 8.034036 -30.789582 42.632331 -13.581351 -43.597682 6.009331 -1.159722 0.000000 0.000000 0.000000 
0.004696 0.951588 -0.047471 -3.085088 8.114196 10.154610 6.347572 -0.456369 -3.157432 7.186374 0.535588 -13.982648 -2.849957 3.608130 18.472507 0.000000 0.000000 0.000000 -2.280390 0.944391 -11.261923 -1.694354 0.133390 -1.187222 -0.309855 -4.330254 11.909238 0.000000 0.000000 0.000000 -2.357560 0.093243 -0.059265 4.825466 -1.850091 -4.391563 2.547808 -7.516080 -9.978258 -2.196356 2.028444 -12.556918 0.000000 0.000000 0.000000 9.345869 -28.757058 8.859726 16.852961 -38.754273 -5.931246 46.350300 -10.959517 -3.255796 0.000000 0.000000 0.000000 -20.146141 34.516054 8.457599 -29.312357 43.114579 -13.049730 -44.321945 7.754711 -1.799864 0.000000 0.000000 0.000000 
0.004886 0.951555 -0.047993 -3.005131 8.131750 10.031682 6.267586 -0.450657 -3.125491 7.226260 0.518429 -13.763365 -3.008114 3.375762 18.444383 0.000000 0.000000 0.000000 -2.509843 0.911602 -11.013256 -1.488688 0.097261 -1.476795 -0.422166 -4.552860 11.935866 0.000000 0.000000 0.000000 -2.388323 0.093027 -0.042284 4.789576 -1.858278 -4.153874 2.543638 -7.157707 -9.818193 -2.051895 1.965514 -12.626498 0.000000 0.000000 0.000000 8.563068 -29.173709 9.129459 16.534823 -38.891720 -5.924468 47.520616 -11.314226 -3.536719 0.000000 0.000000 0.000000 -18.944368 34.951475 8.736427 -28.390420 43.499942 -12.757520 -44.380454 8.585153 -2.091100 0.000000 0.000000 0.000000 
0.005120 0.951668 -0.048628 -2.819926 7.979369 9.965426 6.046458 -0.437607 -3.066765 7.359057 0.500996 -13.502757 -3.075311 3.129498 18.107676 0.000000 0.000000 0.000000 -2.578523 0.905047 -10.976959 -1.562398 0.111967 -1.332094 -0.412472 -4.520240 11.792313 0.000000 0.000000 0.000000 -2.364255 0.091465 -0.041290 4.626879 -1.806185 -3.976259 2.453708 -6.684470 -9.665461 -1.705676 1.802473 -13.048072 0.000000 0.000000 0.000000 8.051383 -29.130568 9.197016 15.807249 -39.269954 -5.856643 48.590552 -12.240201 -4.054798 0.000000 0.000000 0.000000 -18.303407 35.084815 8.862141 -27.984463 43.631721 -12.555808 -43.342263 8.986932 -2.152030 0.000000 0.000000 0.000000 
0.005499 0.951820 -0.049623 -2.703836 7.975310 9.780880 6.061177 -0.438988 -3.172350 7.050482 0.470224 -13.176799 -2.952773 3.232835 17.905172 0.000000 0.000000 0.000000 -2.572733 0.891112 -10.781286 -1.608794 0.110623 -1.451309 -0.585608 -4.841491 11.713671 0.000000 0.000000 0.000000 -2.235533 0.084445 -0.008321 4.591114 -1.841393 -3.455730 2.287391 -6.287490 -9.683648 -1.394184 1.663370 -13.419255 0.000000 0.000000 0.000000 7.797217 -29.326099 9.291502 14.890376 -39.447851 -5.690247 49.465130 -12.765960 -4.408754 0.000000 0.000000 0.000000 -18.136742 35.806827 9.026632 -27.844139 43.116978 -12.222259 -41.891437 8.696705 -1.934286 0.000000 0.000000 0.000000 
